<svg width="24" height="24" viewBox="0 0 24 24" fill="none" xmlns="http://www.w3.org/2000/svg">
<path d="M15 11.385L13.0575 9.4425L12 10.5L15 13.5L19.5 9L18.4425 7.9425L15 11.385ZM6 13.5H7.5V15H6V13.5ZM9 6.75H5.25V8.25H8.25V9.75H6V12H7.5V11.25H9C9.19891 11.25 9.38968 11.171 9.53033 11.0303C9.67098 10.8897 9.75 10.6989 9.75 10.5V7.5C9.75 7.30109 9.67098 7.11032 9.53033 6.96967C9.38968 6.82902 9.19891 6.75 9 6.75Z" fill="#222222"/>
<path d="M13.302 22.5L12 21.75L15 16.5H19.5C20.3302 16.5 21 15.8302 21 15V6C21 5.16975 20.3302 4.5 19.5 4.5H4.5C3.66975 4.5 3 5.16975 3 6V15C3 15.8302 3.66975 16.5 4.5 16.5H11.25V18H4.5C3.70435 18 2.94129 17.6839 2.37868 17.1213C1.81607 16.5587 1.5 15.7956 1.5 15V6C1.5 4.3425 2.8425 3 4.5 3H19.5C21.1575 3 22.5 4.3425 22.5 6V15C22.5 15.7956 22.1839 16.5587 21.6213 17.1213C21.0587 17.6839 20.2956 18 19.5 18H15.8738L13.302 22.5Z" fill="#222222"/>
</svg>
