<svg width="30" height="30" viewBox="0 0 30 30" fill="black" xmlns="http://www.w3.org/2000/svg">
<g clip-path="url(#clip0_1_94)">
<path d="M14.25 2.75C11.2663 2.75 8.40483 3.93526 6.29505 6.04505C4.18526 8.15483 3 11.0163 3 14H-0.75L4.1125 18.8625L4.2 19.0375L9.25 14H5.5C5.5 9.1625 9.4125 5.25 14.25 5.25C19.0875 5.25 23 9.1625 23 14C23 18.8375 19.0875 22.75 14.25 22.75C11.8375 22.75 9.65 21.7625 8.075 20.175L6.3 21.95C7.34177 22.9975 8.58061 23.8284 9.94508 24.3948C11.3095 24.9612 12.7726 25.2518 14.25 25.25C17.2337 25.25 20.0952 24.0647 22.205 21.955C24.3147 19.8452 25.5 16.9837 25.5 14C25.5 11.0163 24.3147 8.15483 22.205 6.04505C20.0952 3.93526 17.2337 2.75 14.25 2.75ZM13 9V15.25L18.3125 18.4L19.275 16.8L14.875 14.1875V9H13Z" fill="black"/>
</g>
<defs>
<clipPath id="clip0_1_94">
<rect width="30" height="30" fill="black"/>
</clipPath>
</defs>
</svg>
