<svg width="22" height="16" viewBox="0 0 22 16" fill="none" xmlns="http://www.w3.org/2000/svg">
<path d="M8 9C10.2091 9 12 7.20914 12 5C12 2.79086 10.2091 1 8 1C5.79086 1 4 2.79086 4 5C4 7.20914 5.79086 9 8 9Z" stroke="#222222" stroke-width="2" stroke-linecap="round" stroke-linejoin="round"/>
<path d="M15 15C15 11.686 11.866 9 8 9C4.134 9 1 11.686 1 15M14 9C14.6684 8.99996 15.3261 8.83244 15.9131 8.51274C16.5 8.19303 16.9975 7.73134 17.3601 7.16984C17.7227 6.60834 17.9388 5.96494 17.9886 5.29841C18.0385 4.63189 17.9205 3.9635 17.6456 3.3543C17.3706 2.7451 16.9473 2.21453 16.4144 1.81105C15.8816 1.40757 15.2561 1.14404 14.5952 1.04456C13.9342 0.945073 13.2589 1.01279 12.6309 1.24154C12.0028 1.47028 11.4421 1.85275 11 2.354" stroke="#222222" stroke-width="2" stroke-linecap="round" stroke-linejoin="round"/>
<path d="M21 15C21 11.686 17.866 9.00001 14 9.00001C13.193 9.00001 11.897 8.70701 11 7.76501" stroke="#222222" stroke-width="2" stroke-linecap="round" stroke-linejoin="round"/>
</svg>
