<svg width="24" height="24" viewBox="0 0 24 24" fill="none" xmlns="http://www.w3.org/2000/svg">
<path d="M7.50004 5.25004C7.49984 5.84697 7.26251 6.41938 6.84028 6.84134C6.41804 7.26329 5.84547 7.50023 5.24854 7.50004C4.6516 7.49984 4.07919 7.26251 3.65723 6.84028C3.23528 6.41804 2.99834 5.84547 2.99854 5.24854C2.99873 4.6516 3.23606 4.07919 3.6583 3.65723C3.86737 3.4483 4.11554 3.2826 4.38865 3.16958C4.66176 3.05656 4.95446 2.99844 5.25004 2.99854C5.54561 2.99863 5.83827 3.05695 6.1113 3.17015C6.38434 3.28335 6.6324 3.44922 6.84134 3.6583C7.05027 3.86737 7.21597 4.11554 7.32899 4.38865C7.44201 4.66176 7.50013 4.95446 7.50004 5.25004Z" fill="#222222"/>
<path d="M5.25 0C2.4 0 0 2.4 0 5.25C0 8.1 2.4 10.5 5.25 10.5C8.1 10.5 10.5 8.1 10.5 5.25C10.5 2.4 8.1 0 5.25 0ZM5.25 9C3.15 9 1.5 7.35 1.5 5.25C1.5 3.15 3.15 1.5 5.25 1.5C7.35 1.5 9 3.15 9 5.25C9 7.35 7.35 9 5.25 9ZM5.25 12C2.4 12 0 14.4 0 17.25C0 20.1 2.4 22.5 5.25 22.5C8.1 22.5 10.5 20.1 10.5 17.25C10.5 14.4 8.1 12 5.25 12ZM5.25 21C3.15 21 1.5 19.35 1.5 17.25C1.5 15.15 3.15 13.5 5.25 13.5C7.35 13.5 9 15.15 9 17.25C9 19.35 7.35 21 5.25 21ZM12 3H24V7.5H12V3ZM12 15H24V19.5H12V15Z" fill="#222222"/>
</svg>
