<svg width="20" height="20" viewBox="0 0 20 20" fill="none" xmlns="http://www.w3.org/2000/svg">
<path d="M2.92984 17.07C1.97473 16.1475 1.21291 15.044 0.688821 13.824C0.164731 12.604 -0.111131 11.2918 -0.122669 9.96397C-0.134207 8.63618 0.11881 7.31938 0.621618 6.09042C1.12443 4.86145 1.86696 3.74493 2.80589 2.80601C3.74481 1.86708 4.86133 1.12455 6.09029 0.62174C7.31926 0.118932 8.63605 -0.134085 9.96385 -0.122547C11.2916 -0.111009 12.6038 0.164853 13.8239 0.688943C15.0439 1.21303 16.1474 1.97486 17.0698 2.92996C18.8914 4.81598 19.8994 7.342 19.8766 9.96397C19.8538 12.5859 18.8021 15.0941 16.948 16.9481C15.0939 18.8022 12.5858 19.8539 9.96385 19.8767C7.34188 19.8995 4.81586 18.8915 2.92984 17.07ZM4.33984 15.66C5.84096 17.1611 7.87692 18.0044 9.99984 18.0044C12.1227 18.0044 14.1587 17.1611 15.6598 15.66C17.161 14.1588 18.0043 12.1229 18.0043 9.99996C18.0043 7.87705 17.161 5.84108 15.6598 4.33996C14.1587 2.83883 12.1227 1.99551 9.99984 1.99551C7.87692 1.99551 5.84096 2.83883 4.33984 4.33996C2.83871 5.84108 1.99539 7.87705 1.99539 9.99996C1.99539 12.1229 2.83871 14.1588 4.33984 15.66ZM14.2398 7.16996L11.4098 9.99996L14.2398 12.83L12.8298 14.24L9.99984 11.41L7.16984 14.24L5.75984 12.83L8.58984 9.99996L5.75984 7.16996L7.16984 5.75996L9.99984 8.58996L12.8298 5.75996L14.2398 7.16996Z" fill="#222222"/>
</svg>
