<svg width="18" height="18" viewBox="0 0 18 18" fill="none" xmlns="http://www.w3.org/2000/svg">
<path d="M11.989 0.784996C12.5345 0.367788 13.223 0.183366 13.904 0.271996C14.199 0.311996 14.466 0.414996 14.732 0.543996C14.986 0.668996 15.282 0.839996 15.636 1.044L15.679 1.069C16.032 1.272 16.329 1.444 16.564 1.602C16.809 1.766 17.033 1.945 17.214 2.182C17.633 2.727 17.818 3.415 17.728 4.096C17.6825 4.38496 17.5903 4.66461 17.455 4.924C17.331 5.178 17.159 5.474 16.955 5.827L11.829 14.697C11.5051 15.2855 11.016 15.7663 10.422 16.08L8.561 17.112C8.231 17.295 7.941 17.456 7.695 17.564C7.52891 17.6408 7.35389 17.6965 7.174 17.73C7.1167 17.7417 7.05847 17.7484 7 17.75H1C0.801088 17.75 0.610322 17.671 0.46967 17.5303C0.329018 17.3897 0.25 17.1989 0.25 17C0.25 16.8011 0.329018 16.6103 0.46967 16.4697C0.610322 16.329 0.801088 16.25 1 16.25H5.336L5.33 16.2C5.30345 15.8757 5.29011 15.5504 5.29 15.225L5.254 13.098C5.22826 12.427 5.40003 11.7633 5.748 11.189L10.875 2.319C11.078 1.966 11.25 1.669 11.408 1.434C11.573 1.189 11.752 0.965996 11.988 0.783996M13.707 1.758C13.4201 1.72107 13.1301 1.79868 12.9 1.974C12.847 2.015 12.773 2.089 12.651 2.271C12.5086 2.49117 12.3728 2.71561 12.244 2.944L12.266 2.952C12.65 3.102 13.224 3.368 14.046 3.842C14.857 4.31 15.365 4.714 15.682 5.029C15.88 4.687 16.014 4.453 16.107 4.263C16.203 4.066 16.231 3.966 16.24 3.899C16.2761 3.61305 16.1986 3.32435 16.024 3.095C15.983 3.041 15.909 2.968 15.727 2.845C15.4586 2.67354 15.1851 2.51013 14.907 2.355C14.527 2.135 14.274 1.99 14.071 1.891C13.874 1.795 13.774 1.767 13.707 1.758ZM14.806 6.286L14.809 6.294L14.816 6.308L14.824 6.324L14.822 6.321L14.804 6.281L14.806 6.286ZM14.804 6.281L14.803 6.277V6.279M14.816 6.312C14.7657 6.24196 14.7095 6.17638 14.648 6.116C14.448 5.913 14.048 5.576 13.296 5.141C12.524 4.696 12.018 4.466 11.72 4.349C11.6413 4.31814 11.5615 4.28979 11.481 4.264L7.046 11.939C6.83449 12.2774 6.73187 12.6725 6.752 13.071L6.785 15.019C7.275 15.089 7.709 15.338 8.017 15.697L9.694 14.767C10.0497 14.5856 10.3412 14.2994 10.529 13.947L14.879 6.42C14.8581 6.38811 14.8391 6.35505 14.822 6.321L14.816 6.312Z" fill="#222222"/>
</svg>
